<svg xmlns="http://www.w3.org/2000/svg" width="81.135" height="81.134" viewBox="0 0 81.135 81.134">
  <path id="Place_Your_Logo_Here_Double_Click_to_Edit_" data-name="Place Your Logo Here (Double Click to Edit)" d="M75.222,43.979l5.913-3.412-5.912-3.414,5.132-4.5-6.464-2.2,4.156-5.415-6.768-.892,3.02-6.121-6.812.445,1.767-6.592-6.6,1.764.448-6.81L56.982,9.856l-.89-6.768L50.676,7.243,48.483.779l-4.5,5.133L40.567,0,37.155,5.912,32.653.779,30.458,7.243,25.043,3.087l-.891,6.768-6.123-3.02.447,6.812-6.594-1.766,1.766,6.594-6.812-.447,3.02,6.123-6.768.89,4.156,5.417L.779,32.652l5.132,4.5L0,40.566l5.912,3.414-5.133,4.5,6.465,2.194L3.087,56.09l6.768.892L6.835,63.1l6.812-.447-1.766,6.594,6.594-1.766L18.028,74.3l6.123-3.02.891,6.768,5.417-4.156,2.193,6.464,4.5-5.131,3.412,5.911,3.414-5.911,4.5,5.133,2.2-6.465,5.415,4.156.892-6.768L63.1,74.3l-.446-6.812,6.593,1.768-1.765-6.6,6.811.449-3.019-6.125,6.767-.89-4.155-5.417,6.464-2.194Z" transform="translate(0.001 0.001)" fill="#0b5e98"/>
</svg>
