<svg xmlns="http://www.w3.org/2000/svg" width="309.52" height="86.519" viewBox="0 0 309.52 86.519">
  <path id="Sketch" d="M1232.931,710.661l.885.533c-.382,0-1.011.527-1.335.8Zm5.232.569c-1.344.045-2.608.089-1.941-1.086l-1.264,1.056c-.063-1.061,4.244-2.906,4.49-4.228l4.815-2.11c-.327-.194.092-1.094-.662-.725,1.048-.733,1.943-1.4.283-.869,11.525-5.006,20.772-14,31.532-19.8.635-.529.064-.531-.317-.531,2.346-.527,1.517-1.585,2.462-2.378l3.423-.786c.891-1.062-.186-.8-.248-1.066a86.924,86.924,0,0,1,7.689-4.849l2.232-1.37,2.245-1.456a48.215,48.215,0,0,0,4.229-3.163c.714-.239.685.052.614.343-.089.364-.245.727.894.061-2.5.167,5.938-4.832,5.419-5.421.719.246,2.483-.861,3.847-1.623,1.435-.8,2.286-1.124.534,1.234,2.106-1.29,3.194-3.162,2.7-3.038a67.049,67.049,0,0,0,8.868-6.649c.346.038,4.08-2.64,7.708-5.095,3.491-2.363,6.787-4.45,5.685-2.894,1.579-2.1,1.853-1.779,5.123-4.482l1.475-2.009,3.972-2.586c1.2-.913,1.31-.943.994-.637l0,0c.119.041-2.1,2-2.089,2.389,1.191-.519,2.978-2.221,5.069-3.9l.262-.351.971-.509a18.434,18.434,0,0,1-2.135,1.755c-1.22.992-2.614,2.241-2.145,2.3.4-.38,1.838-1.617,2.905-2.461s1.793-1.326,1.211-.625a9.326,9.326,0,0,0-2.819,2.462l1.559-.771,2.266-2.437,3.938-1.391a51.292,51.292,0,0,0,4.784-2.15l-2.589,3.226a16.914,16.914,0,0,0-2.025,2.046,13.59,13.59,0,0,1-2.887,2.521l.459-.389c.509-.588-.016-.193-.9.55s-2.147,1.862-2.637,2.39a4.215,4.215,0,0,1,1.746-1.1,7.88,7.88,0,0,0,2.417-2,.885.885,0,0,0-.009.776c2.858-1.748,2.831-1.261,1.435.249-1.292,1.44-4.373,4.19-4.317,4.726l-1.859,1.966c.473-.6.058-.391-.2-.25-1.689,1.933-4.579,4.824-7.528,7.661l-4.418,4.179-2.1,1.94-1,.916-.244.222-.053.036-.1.065c-1.015.668-2.21,1.437-2.171,1.689l-1.184.153c-.457,1.977.289,1.383-2.97,3.929a3.8,3.8,0,0,0-1.327.631c.815-.053,2.02-.486.364.919l-.723.388-.739.793-8.349,8.124v.013l0,.019.024.023a1.7,1.7,0,0,0-1.366.269c-.176.168-.123.337.147.285a.959.959,0,0,0,.347-.086c.456-.177.616-.355-3.6,2.423a44.941,44.941,0,0,0,4.417-2.829c.955-.714,1.472-1.11,1.649-1.252a.584.584,0,0,1-.051.059l1.423-1.067-1.423,1.067c-.422.449-2.9,2.564-1.626,1.71,2.416-1.767,4.181-3.256,6.2-4.893-2.219,1.867.242.1,2.456-1.6,2.281-1.741,4.385-3.455,3.629-2.775.15.016-3.424,3.023-5.3,4.71,2.234-1.574,7.969-7.066,5.781-4.741-.484.4-1.072.841-1.455,1.22-.2.264-3.734,3.744-4.628,4.986-.489.64-.456.81.384.114.131-.232.286-.477.463-.735,1.723-1.357,1.455-.674,1.75-.46.238.247.8.167,2.3-1.592l1.111-1.468a1.963,1.963,0,0,0,1.628-.609,4.077,4.077,0,0,1,2.076-.975l-.124.207a7.4,7.4,0,0,1,1.741-.831,2.334,2.334,0,0,0,1.278-1.41l-.445.089c.807-.531,1.228-.783,1.674-1.029l2.31-1.282a4.584,4.584,0,0,1,1.833-1.135c-.356-.863,5.594-3.824,6.737-4.44-1.913,1.3-.774,1.077-.02,1.067a4.611,4.611,0,0,1,3.445-2.383,2.6,2.6,0,0,1-.066-1.858,2.826,2.826,0,0,1,.918-1.207,28.78,28.78,0,0,1,3.18-2.182c-.842.7-2.1,1.568-1.5,1.482a6.909,6.909,0,0,0,2.161-1.412c.522-.035-1.1,1.146-.474,1.237,2.336-2.313,4.537-3.263,7.187-4.737a5.149,5.149,0,0,0,1.552.343c-.821.2-.384.644-.27.99.375-.655.976-.217,1.6-.126s1.15.084.791-.1a6.47,6.47,0,0,0,.729.105,9.673,9.673,0,0,0-2.646.967,2.4,2.4,0,0,0-1.1,1.726,41.338,41.338,0,0,0-3.773,3.273,21.2,21.2,0,0,0-3.377,4.141,6.54,6.54,0,0,0-1.22.351l-2.244.96.032.456-1.246-.457c-.4.512-.628.887-.786.866-.142-.022-.08-.218.048-.472a4.665,4.665,0,0,0-.915.836c-.438-.369-.02-1.342.48-2.293l1.436-.19c.552-.93.87-1.74-.44-1.357l-.471.537c.325-.643.484-1.106.023-1.008l-2.929,2.318c.434-.094,1.122-.164,1.924-.25-1.65,1.766-3.507,3.828-1.373,3.366l-2.731.919a38.393,38.393,0,0,1-5.015,4.813c-.373-.2.4-1.005-.36-.861a8.432,8.432,0,0,1-2.576,1.873,23.183,23.183,0,0,1-3,1.31c-1.795.654-2.868.86-3.549,1.858-2.994,2.074-1.823,2.12-4.077,3.793.211-.258.607-.758.056-.451l-3.277,2.808c-.259.024.2-.375.654-.775.625-.551,1.237-1.1-.067-.54-5.173,3.721-9.206,6.56-12.285,7.98-3.047,1.913-3.568,2.651-3.694,3.107s.063.678-2.489,2.11c.656-.878,1.563-1.968,1.182-2.067.234-.348.279-.553.067-.562a32.63,32.63,0,0,1-4.249,3.155l2.419-2.293c-.855.247-1.767.664-.284-.768-1.527,1-1.742.881-1.849.739a5.041,5.041,0,0,0-2.011,1.952c-.494.77-1.114,1.8-1.453,2.228a1.836,1.836,0,0,0,.327-1.43c-.033-.286.044-.632.51-1.323q.57-.166,1.215-.407c-.12-.693-1.209-.031-1.706.169-.582.283-.713.238-.536-.3.673-.093,2.236-.926,2.255-1.267q-.976.537-1.8.924c.007-.1.916-.421.49-.375-.592.339-1.633.867-2.018,1.024l.037-.024-1.081.287,1.276-1.634c-.457.587-.505.681.02.036q.922-1.187,1.805-2.422c-.525.76.12.022,1.025-1.01,2.6-2.93,1.269-2.973,3.443-5.181-.275.353-.273.45-.553.805l1.124-1.114c-.248-.387.572-1.731,1.6-3.257a13.082,13.082,0,0,0,2.213-2.059,5.5,5.5,0,0,0,1.086-1.417l-.69.665-2.027,1.954.173-.253c.424-.619.848-1.237,1.21-1.82-.129.083-.263.17-.4.261-1.5.986-3.377,2.363-1.832.7l2.81-1.974c.408-.807.584-1.477.305-1.883,1.46-1.125.839-.244-.057,1.708l2.206-1.55a37.759,37.759,0,0,1,5.226-5.52l1.1-.978q-.666.38-1.463.887c.426-.273,1.078-.71,1.866-1.245l.876-.778c.051.025.136.012.271-.058l-.287.25c1.194-.815,2.583-1.769,3.929-2.688.175-.253-1.3.733-1.453.777.957-.642,1.841-1.209,3.488-2.444q-1.725,1-4.024,2.564l-1.082.853,1.854-1.645,3.8-2.812c-4.442,3.423-1.183,1.018,1.111-.6.557-.681,1.166-.926,4.36-3.453.912-.917-3.919,2.7-7.349,5.347,2.117-1.747,3.659-3.033.028-.324l5.655-4.389-1.078.7,6.493-4.962c3.116-2.642.446-.554-2.219,1.534-2.542,1.991-5.08,3.982-2.594,1.871l5.651-4.519c-1.284.875-11.166,8.839-3.557,2.609l-5.85,4.753c-.976.8-1.841,1.505-2.486,2.021l.009-.024-.14.124.043-.1-1.075.885c.107-.055.529-.379,1.162-.885a6.114,6.114,0,0,1-1.063,1.43l-.9.8-.186.138c-2.419,1.877-2.169,1.76-1.931,1.643.094-.047.188-.094.107-.013l.157-.123-.842.747c-.091-.045-.073-.213-.038-.394.035-.264.092-.541-.771.152a58.272,58.272,0,0,1,4.394-4.16l.538-.447-.007,0-.463.39.452-.4c-.113-.07.091-.391,1.335-1.6l-.363.762c.7-.6,1.382-1.177,2.016-1.708l1.979-1.662-.146.163-3.877,3.266-.029.06c.332-.258.243-.154-.061.129l-.067.141c.336-.285.7-.6,1.1-.926.681-.575,1.443-1.214,2.206-1.855l-.477.532q-.283.3-.57.6c-.917.772-1.773,1.493-2.453,2.069l-.039.082a.093.093,0,0,0-.026-.027c-1.268,1.075-1.893,1.622-1.1,1.013-.041.022.4-.357,1.11-.956l.013-.029.008.011c.537-.452,1.225-1.027,1.977-1.649-.3.3-.613.6-.933.891l-.071.059-.954.785a.32.32,0,0,1-.012.064c.359-.3.7-.6,1.037-.909,1.92-1.593,3.1-2.609,3.682-3.137-.912.733-1.874,1.521-2.75,2.245q.256-.254.507-.513c.949-.8,1.963-1.653,2.915-2.459,3.843-3.238,6.671-5.7,1.95-1.941-.9.807-2.358,2.042-3.818,3.269l.732-.816.815-.686c-.254.15-2.8,2.269-3.65,2.976l4.56-3.922c-4.572,3.829-4.048,3.3-4,3.154.1-.188-.188-.049-4.777,4.016,3.608-3.2,3.312-2.974,2.373-2.2s-2.356,1.984-1.362,1.018a43.693,43.693,0,0,1,4.2-3.4c.8-.577,1.685-1.252,5.251-4.363.718-.7.108-.218-.5.264s-1.2.947-.54.3l5.339-4.472c.653-.835-1.453.8-3.755,2.715l-6.205,5.236,3.431-2.647c-3.1,2.8-3.55,3.158-3.892,3.412a34.285,34.285,0,0,0-2.989,2.575c1.786-1.847-1.485,1.067-1.689,1.135-.088.048-.1.023-.012-.1.178-.114.531-.443.781-.641l.106-.08-.079.053c-1.1.73-.056-.581,1.024-1.89,1-1.208,2.021-2.415,1.418-2.025a33.194,33.194,0,0,0-5.818,5.106c-.724.635-.2.257.374-.121.948-.626,2.034-1.251-2.131,2.692,2.244-2.557.786-1.374-.868.022-1.724,1.445-3.5,3.01-3.637,2.393a11.679,11.679,0,0,0,2.188-2.413,7.559,7.559,0,0,1,1.833-2.038,35.43,35.43,0,0,0-4.712,4.259l.608-1.059c-2.407,2.357-2.962,3.055-3.6,3.723-.6.643-1.255,1.239-3.152,2.913,1.653-1.626-.042-.908,1.277-2.259a16.378,16.378,0,0,0-2.985,2.565l.2-.229a8.774,8.774,0,0,1-2.755,1.676,8.566,8.566,0,0,0-2.735,1.954l.19.261c-.982.929-1.905,1.711-2.834,2.433l-1.4,1.043-1.665,1.166c-2.938,2.015-5.93,4-8.493,5.978l1.849-.964c-.876.539-3.283,2.829-5.086,3.487a10.371,10.371,0,0,1,1.147-.938c-.25-.268-1.2-.273-2.534.524l-.187.794-.759,0c-1.965,1.321,1.017.266-.948,1.589-1.056-.281-3.332,1.236-5.62,2.752-2.105,1.4-4.221,2.791-5.4,2.787-.347.927.6.332,1.53-.263s1.829-1.19,1.388-.263a9.667,9.667,0,0,0-2.406,1.055l.822.27c-6.148,3.7-8.737,4.749-13.935,8.45l.13-.266c-2.028,1.053-2.972,1.843-3.48,2.905-.571,0,.693-1.056-.2-.794-2.331,3.7-7.334,3.421-8.668,5.807C1240.365,711.158,1239.239,711.194,1238.162,711.229Zm62.146-21.847c-.391.531.8-.187,1.4-.541-.045-.128-.029-.274-.151-.274C1301.413,688.568,1301.1,688.758,1300.308,689.383Zm13.337-12.662.848-.63Zm1.336-.992.461-.343Zm-6.992-1.085a11.685,11.685,0,0,0,1.648-1.679c.239-.3.459-.6.661-.913l.29-.468.069-.117.016-.03.008-.015-.477.461-.79.762A17.953,17.953,0,0,0,1307.99,674.644Zm-.143-.746q.52-.477,1.051-.94a2.618,2.618,0,0,0-.829.39Q1307.957,673.614,1307.847,673.9Zm14.65-15.426c-1.157,1.037-2.838,2.481-1,.984-.447.312.1-.178,1.146-1.068l-.017,0-.045.005Zm28.862.381c.851-.2,1.689-.564,1.812-.906A5.814,5.814,0,0,0,1351.359,658.852Zm-8.376-21.865.284-.213.194-.25.057-.167C1342.367,637.364,1341.3,638.293,1342.983,636.988Zm-106.824,71.3-.441.526-1.268.263Zm7.44-4.151c-.509.355-1.054.726-1.366.985A7.8,7.8,0,0,1,1243.6,704.135Zm56.77-12.822c.154.131.234.194-.284.788l-.575.508Zm-3.384-1.257-.183.115-.038,0C1296.719,690.174,1296.809,690.134,1296.985,690.055Zm.335-1.5-.1.132Zm-17.915-1.1.305-.117a.632.632,0,0,1-.261.155A.043.043,0,0,1,1279.4,687.457Zm20.217-1.98-.579.821Zm.637-1.246.469-.162-.737.526Zm-15.281-.473-.182.095A1.138,1.138,0,0,1,1284.978,683.758Zm12.112-1.909c-.276.284-.567.573-.889.875C1296.464,682.442,1296.767,682.147,1297.09,681.849Zm2.589-2.67c3.2-1.813-.224.49-2.589,2.67C1297.951,680.963,1298.66,680.132,1299.679,679.18Zm1.7.027a22.6,22.6,0,0,1,3.363-2.06l-4.162,4.012A6.018,6.018,0,0,0,1301.382,679.207Zm4.881-3.523c-.2.289-.393.576-.582.857-.321.232-.631.427-.935.606Zm10.208-1.1c.084-.061.086-.058-.009.017A.049.049,0,0,0,1316.471,674.584Zm64.726-.4a3.8,3.8,0,0,1-2.156-1.663,7.108,7.108,0,0,1-.443-.879l-.221-.682a7.156,7.156,0,0,1-.229-1.205,5.179,5.179,0,0,1,.184-2.04,18.007,18.007,0,0,0,.3,2.274,43.148,43.148,0,0,0,.446-5c.318.011,1.152,2.2,1.789,1.233a16.789,16.789,0,0,0,.624-2.831,4.173,4.173,0,0,0-.1-1.751c-.276-.815-1.023-.715-1.662-.364a4.653,4.653,0,0,1,.144,1.041l.015.742-.014.457-.117.828c-.211,0-.28-.3-.28-.746a5.1,5.1,0,0,0-.089-.868c-.082-.454-.239-.714-.814-.536l.916-1.581c-.023.113.032.571.749-.079.321-.905.381-.588,1.27-1.815.551-.082,1.394.1,1.916,1.326a19.593,19.593,0,0,1,1.038,4.726l.738-3.764.917-1.075c.64-2.491.236-3.987-.846-3.966-.922-.158-2.356.894-2.975,1.375a23.651,23.651,0,0,1,4.286-4.744c.837-1.82.3-1.652-.507-.963a20.081,20.081,0,0,0-1.943,1.9,9.917,9.917,0,0,1-1.917,1.72,1.048,1.048,0,0,1,.025.442c-.661.657-1.642.916-1.91,1.491a12.884,12.884,0,0,1,1.667-3.313,46.506,46.506,0,0,0-3.22,4.1c.359-.581,1.008-2.577,1.294-3.064a5.4,5.4,0,0,0-1.52,2.047,2.556,2.556,0,0,0-.367,1.462,1.262,1.262,0,0,0-.846-.179c-.061.005-.118.01-.168.01-.279.029-.44-.049-1.391-.1-.526.485.587,1.386.8,1.42a3.394,3.394,0,0,1-.891.889,12.742,12.742,0,0,1-1.5.836c2.433-2.424-1.021-3.079-1.085-4.322l-1.816,3.787-.908,1.894-.454.948c-.186.339-.511.777-.8,1.184a3.735,3.735,0,0,0-.005-2.105c.022.316-.389.871-1.158,1.622a12.324,12.324,0,0,1-1.392,1.166c-.54.345-1.135,1.132-1.837.532a16.4,16.4,0,0,1-4.258-2.557,10.786,10.786,0,0,1-1.679-1.678l-.676-.9c-.177-.3-.418-.793-.436-.839a3.773,3.773,0,0,1-.256-.872l.109.337c.3.106.18-.477.262-1.3a4.76,4.76,0,0,1,.175-1.02c.316-.7.567-1.069.6-1.214.108-.112.074.019,0,.184-.1.269-.364.8.492-.121a.2.2,0,0,1,.02-.134c-.484.375-.421.177-.157-.247q-1.324,1.161-2.271,2.1l-.157.156c.222-.306.719-1.1.054-.817a2.832,2.832,0,0,0,.523-.305c.614-.437,1.452-1.239,2.205-1.852.585-.479,1.091-.824,1.109-.6.079-.044.156-.086.229-.125.478-.634.777-1.107,1.088-1.57a5.967,5.967,0,0,0,.15.638,21.107,21.107,0,0,0,1.5,3.395c-2.113,1.66-1.211,1.267-1.328,1.462a1.2,1.2,0,0,0,.211.337,7.814,7.814,0,0,0,.495.657c.419.473.612.687.893.968a11.847,11.847,0,0,1,1.321,1.437.765.765,0,0,0,.461.4,4.283,4.283,0,0,0,.581-.559,10.515,10.515,0,0,1,1.052-1.152l.179.572a9.325,9.325,0,0,1,1.147-1.427c.336-.357.6-.6.881-.856a25.347,25.347,0,0,0,2.559-2.662c-.984,1.516-.275,1.4,1.495.827q1.118-1.505,2.726-3.351a4.941,4.941,0,0,1,.7.588,16.841,16.841,0,0,1,3.982-2.864c1.693-2.352,7.045-5.982,8.709-7.8-.038.757,1.026-.078,2.167-.977,1.116-.883,2.292-1.817,1.7-.718l1.309-1.193.7-.608.409-.266a21.478,21.478,0,0,1,1.269-1.891c.458-.553.78-.833.975-.69l.3-.177-.491.722-1.376,1.882c-.425,1.29-1.147,3.028-1.709,4.266.4-.721,1.008-1.708,1.717-2.852l-1.881,3.211-.333.7a1.394,1.394,0,0,1,.116-.33,16.039,16.039,0,0,0-1.859,4,39.529,39.529,0,0,0-4.369,10.258c-.527,1.694-1.057,3.518-1.67,5.324l-.45,1.312c-.147.4-.2.539-.328.814a9.427,9.427,0,0,1-.769,1.385c.285-.544.589-1.361.424-1.661-.184.648-.4,1.316-.6,1.942a47.019,47.019,0,0,1,5.406-1.664l-.062-.741c3.146-.526,9.459-3.36,11.727-2.395.607-.762,4.306-.94,6.008-1.585l.586.429a23.452,23.452,0,0,0,5.012-1.5c4.93-.078,8.929-2.324,13-3.315l.078.147,4.006-1.472c-.948.776.72-.553,1.991-.742a14.266,14.266,0,0,1,5.029-1.085l2.626-.664c-2.812,1.138.412.728.742,1.313l1.54-.945c.754.123-.948.777.322.584,1.031-.632,4.346-1.488,5.208-2.41a2.793,2.793,0,0,0-1.173-.15c-.131.077-.125.066-.046,0l-.124,0,.146-.016a2.254,2.254,0,0,0,.391-.371c2.118-.411,1.286-.467,1.139-.731a9.537,9.537,0,0,0,2.855-.074,6.441,6.441,0,0,1,2.7-.007c-1.726-.628,5.648-1.4,3.883-2.185a2.651,2.651,0,0,0,1.53.13c.224-.066.357-.131,1.039.145-2.55.388-4.776,1.953-6.657,2.914l2.117.073c-.982,1.463-4.511.751-5.576,1.441a4.475,4.475,0,0,1,2.643-.481l-.715-.683a20.257,20.257,0,0,0-6.814,2.613c1.949-.213-2.14,1.118-.618,1.364l1.453-.5c.759.123-.608.764-1.374,1.237-4.846.618-13.282,3.431-15.136,3.194a9.3,9.3,0,0,0,3.495-1.158l-2.29.223c1.776-.5,3.386-.108,5.944-1.09-.586-.425,1.128-1.676-1.069-1.9-5.263.478-3.77,2.508-9.895,3.9-.212.128-.077-.052-.059-.233.026-.261-.193-.523-2.058.155-3.923,1.618-6.583,3.632-6.269,4.812,1.624-.8,4.868-2.383,5.617-1.668-1.619.8-4.519,1.78-4.526,2.374-2.03-.526,3.154-1.14.615-1.356a6.436,6.436,0,0,0-2.141,1.112c.693-.62-1.258-.408-1.677-.545-3.9,1.014-6.249,1.167-10.448,2.164.167.058.218.068-.077.018l.077-.018c-.259-.087-.8-.284-.742-.558-1.97.8-4.5,3.041-3.58,3.46-2.385.661-2.634.221-4.606,1.016,3.485.056-.675.015-.782,1.06-1.284.4-1.3.2-1.369-.01-.044-.125-.112-.25-.493-.24-.321.192-1.074.723-1.064.994-1.463-.4,2.009-2.527.291-2.986a52.187,52.187,0,0,0-6.22-.106c-.8,1.055.281,4.324,2.048,5.031-.034.358-.773.249-1.59.14a6.1,6.1,0,0,0-1.548-.081,6.372,6.372,0,0,0-2.056.142,2.794,2.794,0,0,1-.9.113A3.791,3.791,0,0,1,1381.2,674.185Zm54.283-19.452.06-.05C1434.5,654.821,1433.961,654.854,1435.479,654.733Zm17.32-2.384Zm-72.416-.782a3.925,3.925,0,0,1,.322-.524C1380.1,651.482,1380.416,651.354,1380.383,651.567Zm73.724-1.2Zm-61.946,21.688a3.7,3.7,0,0,0,1.287.043,4.79,4.79,0,0,1-.907.121C1392.27,672.221,1392.165,672.156,1392.161,672.056Zm-2.809-3,.44,1.409-.6.16Zm-73.806-3.8-.083.053Zm56.592-4.775,1.926.861a4.291,4.291,0,0,0-2.392,2.3Zm52.873,2.03c2.217-.373-.091.45-.267.752a6.636,6.636,0,0,1-1.218.281C1423.074,663.551,1424.88,662.749,1425.01,662.518Zm-121.055.281a.174.174,0,0,1,.1.048A.479.479,0,0,1,1303.955,662.8Zm44.7-.707a11.643,11.643,0,0,1-1.825.616Zm-.475-.508a.621.621,0,0,0,.439.179,1.4,1.4,0,0,1-.391.084C1348.062,661.847,1348.07,661.741,1348.182,661.584Zm73.717-.3,2.3-.821c.422.137-.427.46-.948.776a3.421,3.421,0,0,1-1.1.26C1421.923,661.5,1421.815,661.427,1421.9,661.283Zm-47.836.067.124-.06-.069.085Zm56.585-1.1a2.313,2.313,0,0,0,1.178.259l-1.022.629Zm-14.522-.909a18.293,18.293,0,0,0-2.776.882l-.667.022A6.13,6.13,0,0,1,1416.126,659.336Zm1.012.006c-.319-.006-.659-.013-1.012-.006a18.949,18.949,0,0,1,3.07-.413c-.15.364-.678.43-1.408.43C1417.585,659.353,1417.367,659.348,1417.137,659.343Zm-67.951-1.062-.525,1.01-.456.05Zm-27.246.5-.068.06-.384.321Zm58.688-.516.07-.087a24,24,0,0,1,1.591-1.937c.109-.093.134-.061.183-.031a.188.188,0,0,0,.133.031c-.465.4-1,1.574-1.517,1.986.648-.968.229-.509-.187-.051a3.634,3.634,0,0,1-.513.52C1380.361,658.695,1380.421,658.577,1380.629,658.264Zm-2.445.154.028.018A.052.052,0,0,1,1378.183,658.418Zm.593-.445c-.018.03-.036.056-.053.078Zm-20.768-.922c-.011.037-.022.076-.034.117l-.01.022C1357.978,657.142,1357.993,657.1,1358.009,657.051Zm.124-.337c.142-.168-.013.031-.124.337A2.106,2.106,0,0,1,1358.132,656.714Zm24.715-.535a.727.727,0,0,1-.241.061C1382.7,656.169,1382.784,656.122,1382.847,656.178Zm67.307-2.478c-.323.142-.579.284-.516.392l-2.208.376C1447.325,654.276,1448.819,654.029,1450.155,653.7Zm1.705-.577a7.025,7.025,0,0,1-1.705.577A15.6,15.6,0,0,1,1451.86,653.124Zm2.8.049.676-.023-2.213.376Zm-4.558-.365a.624.624,0,0,0-.278.39C1449.806,653.051,1449.927,652.926,1450.1,652.807Zm-8.422-.282c.648-.432,1.549-.863,1.3-.429-.423-.136.045.672-.635.7a4.361,4.361,0,0,1-1.164.343C1440.889,653.135,1441.22,652.83,1441.677,652.525Zm-80.013-.9c.743-.575,1.538-1.157,2.376-1.732a15.39,15.39,0,0,0-2.329,2.719A3.5,3.5,0,0,1,1361.663,651.629Zm-31.868-.365-.22.221c-.649.539-1.083.895-1.091.895S1328.853,652.058,1329.8,651.264Zm127.761.319.668.573-1.275.193Zm-12.415-.031c-.041.033.041.048.226.043a12.788,12.788,0,0,0-1.456.318Zm1.41-.077a11.042,11.042,0,0,1-1.184.121A10.275,10.275,0,0,1,1446.553,651.475Zm-1.41.077C1445.266,651.448,1446.021,651.278,1445.143,651.552Zm19.408-2.893a3.54,3.54,0,0,1,.865.069c.534.1.886.2,2.7-.493,1.058-.65-.408-.58-1.681-.51a9.8,9.8,0,0,1-1.367.028c1.9-.856,1.84-1.079,1.836-1.336,1.952.571,3.695,2.057,1.875,2.985-2.116-.073-4.252,1.044-4.258,1.638-.679.026.091-.448.006-.594l-2.211.969C1461.469,650.552,1465.818,649.061,1464.55,648.659Zm-17.46,2.429-.792.148C1447.06,650.92,1447.176,650.957,1447.09,651.088Zm9.55-.512c1.364-.642,2.732-1.287,2.543-.387l.238-.063a9.4,9.4,0,0,1-2.3.673A.509.509,0,0,1,1456.64,650.576Zm4.334-.9a10.088,10.088,0,0,0-1.245.346C1460.451,649.746,1461.048,649.318,1460.974,649.678Zm-6.918-.794c-.267.135.05.248.122.372a5.173,5.173,0,0,0-1.794.239Zm.209-.076-.209.076A1.212,1.212,0,0,1,1454.266,648.807Zm18.517-.888.159.293c-.256.157-.59.167-.851.325a3.255,3.255,0,0,1-.466.046C1471.078,648.584,1471.782,648.2,1472.783,647.919Zm-10.693-1.173-.009.6-1.01.032Zm4.422-1.346-.259.751-1.366.643Zm.189.951.21-.049-.012.113Zm1.77-1.172a11.726,11.726,0,0,0,3.022,0l-.8.286.257-.157-4.042.994C1466.955,646.093,1467.183,645.812,1468.471,645.18Zm6.687-.978a29.2,29.2,0,0,1-3.665.978l3.785-1.361.017,0c0,.033-.019.069-.023.1a.346.346,0,0,0,.077-.033c.2-.007.132-.038-.054-.068v-.011l-.018.007-.1-.014c.661-.057,1.356-.145,2.073-.256-.639.2-1.314.41-2.047.715,1.226-.171,1.054.058.745.287-.417.31-1.084.619,1.117-.058-1.363.643-.523.913-2.909,1.593C1472.786,645.753,1474.68,644.975,1475.158,644.2Zm0,0a.609.609,0,0,0,.114-.275C1474.94,644.09,1474,644.372,1475.158,644.2Zm6.056.294,3.147-1.156c-.165.3.334.582-1.534.948l.167.292Zm-7.616-.618c.118-.2,1.093-.142,1.582-.07-.519.042-1.017.071-1.47.071Zm6.458-1.42c1.225-.349.818.119.709.35a35.314,35.314,0,0,1-3.512.743A12.214,12.214,0,0,0,1480.055,642.455Zm.709.35c.733-.2,1.406-.422,2.036-.654a3.6,3.6,0,0,1-1.814.714.653.653,0,0,1-.2.054C1480.722,642.919,1480.733,642.871,1480.765,642.805Zm-2.739-.9a15.63,15.63,0,0,1-1.558.905A8.008,8.008,0,0,1,1478.026,641.907Zm5.822-.426a1.341,1.341,0,0,0,.335.087,13.176,13.176,0,0,1-1.382.582A6.948,6.948,0,0,1,1483.848,641.481Zm7.728-.227a12.593,12.593,0,0,0,3.414.059l.253-.156c1.807-.169.5.472-.009.779.021.041.027.086.161.106-.473.11-.392.034-.161-.106-.094-.187.675-.508-.167-.477a2.627,2.627,0,0,0-1.363.645A5.387,5.387,0,0,1,1491.576,641.254Zm-10.333-.993c-.772.473,1.183.255.5.873a9.587,9.587,0,0,0-3.714.773A14.119,14.119,0,0,1,1481.243,640.261Zm2.94,1.308.184-.086c.034.07-.01.094-.088.094A.7.7,0,0,1,1484.183,641.569Zm-.212-.148-.122.061C1483.706,641.42,1483.654,641.367,1483.97,641.42Zm7.454-.271.152.1C1491.431,641.22,1491.37,641.183,1491.424,641.149Zm-1.258-.4.759-.148-.933.452Zm-1.3-.412.031.013-1.647.383Zm-90.406-3.768-.217.14,1.088-1.652c.565-.759.886-.962,1.1-.882-.942,1.526-2.6,4.216-4.045,6.552A35.389,35.389,0,0,0,1398.462,636.566Zm94.508,3.04c-.507.312-.084.446,0,.593l-2.043.4Zm-5,.328a2.338,2.338,0,0,1,1.649.211l-.747.189Zm-.519-.941-.941.778-.77.474Zm10.537-.316c-1.538.949-.178.9-.867,1.518-.1,0-.194.006-.279.006C1494.93,640.2,1497.006,639.281,1497.984,638.678Zm-8.369,1.468.188-.048c-.031.055-.059.076-.1.076A.242.242,0,0,1,1489.615,640.146Zm5.041-1.624c.169.206-.094.462-1.793.869Zm-.924-.65c.169.292,1.436.1,2.123.069l-1.2.581C1494.456,638.285,1493.681,638.114,1493.732,637.872Zm12.253-1.572-2.9,1.595-.6.17Zm-2.043.022-.847.383C1503.518,636.3,1503.76,636.268,1503.941,636.322Zm0,0,1.8-.811c-.743.423-1.04.805-.964.469-.219.383-.355.49-.475.49S1504.085,636.369,1503.941,636.322Zm2.9-.944c3.235-1.014,3.9-.441.668.571C1509.135,635.143,1507.86,635.339,1506.843,635.378Zm11.525-.427-1.021.631-1.36.051C1515.826,635.341,1517.859,635.265,1518.368,634.951Zm-13.66-.307c-.3.183.085.141.546.1a2.986,2.986,0,0,1,.886,0l-1.618.8C1503.425,635.433,1503,635.3,1504.708,634.644Zm11.635-.212c1.954-.223,5.279-1.685,7.916-2.526l-.778,1.068-.423-.13c-1.963.2-4.443,1.729-6.012,1.729A1.61,1.61,0,0,1,1516.343,634.432Zm-7.146-.4c.631-.139,1-.235,1.262-.312-.936-.1,1.291-.375,0,0l.3.024c-1.369.474-1.68.627-1.681.626S1509.466,634.179,1509.2,634.031Zm19.647-3.189-.17.3-1.618.8Zm13.118-5.37c-.092.139.35.646-.462.81.009.018,0,.026-.012.026C1541.381,626.308,1540.825,625.9,1541.963,625.472Z" transform="translate(-1232.482 -625.472)" fill="#355e98"/>
</svg>
