<svg xmlns="http://www.w3.org/2000/svg" width="362.86" height="101.636" viewBox="0 0 362.86 101.636">
  <path id="Sketch" d="M1465.846,1603.861c1.535.218.829.948,1.029,1.141C1464.366,1604.331,1465.952,1603.657,1465.846,1603.861Zm-27.905-7.815,3.162,1.117.379.425Zm-20.319-3.361c2.492-1,8.463,1.858,12.743,2.153l.751-.192,1.668,1.5C1427.734,1595,1421.277,1592.975,1417.622,1592.686Zm-10.712,1.1c.953.2.913.266.606.266C1407.027,1594.056,1405.862,1593.884,1406.91,1593.789Zm-2.4-.425c.879-.406-2.615-.995,2.953.385l-.555.04Zm-8.96-2.078,3.162,1.118a7.281,7.281,0,0,1-1.645.006c-.857-.052-1.575-.1-.979.152C1392.8,1591.654,1393.549,1591.46,1395.552,1591.286Zm4.321.2c1.886.041,4.284.3,1.11-.819,3.943.883,4.925,1.538,3.521,1.538A24.887,24.887,0,0,1,1399.873,1591.488Zm16.832-.5,2.522.051,2.021.881C1420.238,1591.481,1416.468,1591.4,1416.7,1590.987Zm-22.394-.8c.516-.139.654-.59,1.612.473-.211-.477.419.063,1.883.652Zm-1.648-.532,1.648.532a1.058,1.058,0,0,1-.257.031A2.655,2.655,0,0,1,1392.663,1589.659Zm-1.415-1.921,1.137.232,5.7,2.222Zm-14.559-.534-3.5-1.209c3.227.554,3.767.914,3.5,1.209l2.339.807c-1.276-.03-3.657-.288-3.906.13C1374.976,1587.8,1376.372,1587.544,1376.689,1587.2Zm4.184-2.412c1.406.872-1.116.818,1.929,2.143C1380.778,1586.055,1376.467,1584.7,1380.873,1584.792Zm-21.031.093,1.526.663,1.905,1.091Zm9.508-.575,3.86.537c-.119.211-.871.406.131.842Zm-5.319.984,1.579-.58-3.068-.537,3.122.52-.054.017,1.419.258a4.108,4.108,0,0,1-1.973.372C1364.76,1585.344,1364.421,1585.329,1364.03,1585.294Zm3-.322c.152-.057.24-.069.357.065Zm-21.782-2.336a23.822,23.822,0,0,0,7.025,1.045c1.4.869-2.258.585-.731,1.247A34.17,34.17,0,0,1,1345.247,1582.636Zm22.67,1.475-.388-.428,1.82.627Zm2.494-.74c-.085.049-.171.1-.257.151C1370.046,1583.474,1370.151,1583.422,1370.411,1583.37Zm6.793.083-.5-.217a29.953,29.953,0,0,0-6.293.134,10.364,10.364,0,0,1,3.749-1.239,6.318,6.318,0,0,0,2.654.9c1.562.032.072-.412.205-.679.9.384,3.042,1.139,1.056,1.139C1377.843,1583.486,1377.556,1583.476,1377.2,1583.454Zm-21.111-.3a16.351,16.351,0,0,1-2.08-.936c.988.258,1.9.527,2.679.807a2.76,2.76,0,0,0-.6.129l.239.086a2.857,2.857,0,0,1-.349.033C1355.821,1583.276,1355.915,1583.22,1356.092,1583.158Zm.6-.129c.239-.029.425-.018.357.119Zm-14.517-1.658c.984.333,1.984.782,3.073,1.265A19,19,0,0,1,1342.175,1581.371Zm35.119.823c-.244.032-.246.1-.275.154C1376.563,1582.151,1376.4,1582.045,1377.293,1582.194Zm-27.182-.872c.251.325,1.1.985-1.235.507a30.225,30.225,0,0,0-5.411-1.513c2.219.251,4.5.594,6.646,1.006-.113-.147-.124-.23.4-.088a8.858,8.858,0,0,1,3.5.988C1352.8,1581.9,1351.508,1581.6,1350.112,1581.322Zm.466-2.4,3.271-.145-.245.416c3.526.493,2.667.9,3.035,1.325Zm-10.995,1.06.179-.021-7.285-1.882c1.583.18,3.532.578,6.979,1.339-1.049-1.091-4.713-2.17-2.248-2.66,4.551.932,3.059,1.328,5.714,2.222-4.219-.935-2.9-.5-2.068-.065.616.32.972.641-1.322.416,1.418.423,2.712.716,3.933.987C1342.12,1580.166,1340.817,1580.051,1339.583,1579.979Zm.212-.012,0-.015-.029.006Zm-.069-.16c.017.047.067.1.065.145.338-.046.455-.091.085-.1a.966.966,0,0,0-.15-.048.914.914,0,0,0-.27-.387c-.466-.05-.749-.07-.9-.07C1338.007,1579.349,1339.217,1579.628,1339.727,1579.807Zm-3.081.095c.891-.014,1.891.022,2.938.077a15.7,15.7,0,0,1-1.741.107A2.28,2.28,0,0,1,1336.646,1579.9Zm-12.871-3.356,7.676,1.355-.509-.22,1.536.4a28.152,28.152,0,0,0-5.582.041C1324.383,1577.237,1323.9,1576.841,1323.775,1576.545Zm-3.846-.672,2.662.9.64,1.062Zm3.447.6.351-.093c-.048-.366.014-.683-3.676-1.872a22.938,22.938,0,0,1,2.517.019c2.371.082,5.107.164,3.009-.745-3.5-.969-4.124-.817-5.091-.665a8.244,8.244,0,0,1-1.576.111c2.257-.588-6.092-2.649-4.725-3.884l4.29,1.348c.126-.21-1.4-.872-.138-.844.138.844,4.32,2.4,8.213,2.269,3.558,1.293.66,3.427-2.824,4.264l.048.161Zm189.278-5.3-2.9.319c.817.047.931.221,1.74.266-5.652.812-3.921-2.354-11.091-2.61-2.5-.015-4.272.226-2.607.706l-5.487-1.145c-1.317-.064-1.328.261-.42.426l-7.679-.824.057.086c-1.172-.529-3.856-1.416-5.171-1.808-2.182.22,1.056.379.478.677l-4.636-1.046c-1.966.556,1.866,1.561,5.11,1.723-2.637,1.371-3.509.831-5.585.291a21.28,21.28,0,0,0-7.828-.42l4.4.682c-2.976,1.342-6.388.517-11.469,1.111,1.225-.418,10.211-1.691,5.172-2.759a17.178,17.178,0,0,1-6.055-.7c-.1.974-2.762.532-6.115.224l.133,1.31c-3.6-.646-3.264-1.287-5.359-2.02-4.056-.161-4.968.78-5.981,1.557-6.494-.257,4.591-1.287-3.061-2.078-5.425.11-9.171-.688-15.565-1.922-3.8.177.6.838-.775,1.112l-3.273-1.263c-.821-.031-.578.3-.455.473-2.791-.593-.142-1.309-4.55-1.963-.52-.715-2.624-.423-5.267-.132-2.93.323-6.523.646-9.348-.4-1.376.275.6.838.151,1.31-7.452-1.578-6.4-1.216-12.482-3.053l-5.323.5c3.935-.715-.932-2.191-5.2-3.424,1.4-.377,2.6-.711,3.4-.854l-6.865-1.152c-.849.158-.182.648.914,1.263l-1.246-.394c-2.5.315-1.271,1.147.452,1.986l2.542-.633c1.655.9,3.193,1.875,2.787,2.608a11.268,11.268,0,0,0-2.241-.5c.431.242.7.452.489.568-.243.121-.945-.213-2.053-.619l-1.667,1.338-.343-.6-9.1.3c-6.373-1.874-11.86-4.371-22.09-5.63,2.479,1.222.437,1.763.494,3.025,2.887-1.146,7.915,1.077,13.253,1.151-2.785-.04-2.214.6-1.521.851l-9.412-1.82c.148,1.04-2.065.639-4.57.9,2-1.9-6.987-1.811-10.809-2.672-.283.667.6,1.415,5.32,1.554a8.486,8.486,0,0,1-6.022-.882,8.638,8.638,0,0,0-5.728-.951c1.15.09,1.776.024,2.209.4-2.649-.774-9.249-.71-7.741-.02l1.147.086c-7.652-.247-23.251-1.449-24.283-3.236a6.762,6.762,0,0,0,1.311,2.513l-13.27-6.635c1.11,1.552-3.717,4.785,2.565,6.014a28.246,28.246,0,0,1-7.9-.556c1.254-.133,3.225-1.944,1.537-2.185-4.689,1.338-3.325.7-8.867,1.689,1.454-.386-.425-2.609-3.229-2.71.419.359-.318,2.115.551,2.532l-6.7-2.54c1.2.6-.279,1.854-1.826,2.357.787-.4-6.327-.345-8.263-.689l3.133-.338c-8.28-.16-7.964-3.694-16.167-4.069.964.53,2.275,3.04-1.909,3.075-1.84-1.28-8.119-6.118-15.317-7.445l-1.431.583-5.518-1.09a139.963,139.963,0,0,0,17.529,7.794,3.807,3.807,0,0,1,.54-.147c.137.843,5.7,2.218,8.853,3.333-1.234,1.027-7.558-1.2-10.721-2.319-.338,1.678,4.995,4.521,12.583,6.779,3.582.94,3.937.57,3.837.2-.07-.257-.36-.514.059-.332,11.607,1.917,9.277,4.816,19.1,5.44,4.012-.342.581-2.1,1.573-2.707-4.932-1.365-7.821-.792-11.208-1.484l4.277.292a23.092,23.092,0,0,0-6.7-1.608c3.374-.351,19.55,3.549,28.632,4.367,1.515.661,4.176,1.555,2.8,1.739l-2.791-.689c-2.757.367,5.078,2.21,1.432,1.929,3.666,1.331,7.722,3.1,13.141,3.627l1.174-.978a11.049,11.049,0,0,1-4.984-.649c2.116.967,8.483-.089,10.607,1.975l-3.9.131c3.68,1.34,8.126,3.534,12.919,4.053a2.791,2.791,0,0,1-1.885.219,6.2,6.2,0,0,0-2.8.2c3.093-1.142-10.7-2.139-7.634-3.053a15.4,15.4,0,0,1-4.984.026,23.1,23.1,0,0,0-5.3-.069c.217-.375,1.741-.465-2.258-1.024.185.184-.021.238-1.5-.2l1.5.2a4.875,4.875,0,0,0-.8-.522l-.273-.021.228-.005c-.16-.094-.173-.109.085,0a6.28,6.28,0,0,0,2.136-.226c-1.788-1.3-8.095-2.477-10.133-3.362-2.387-.259.895.65-.471.834l-3.046-1.325c-.487.833-6.53.29-1.093,1.874l-4.992-.914a35.332,35.332,0,0,1-9.522-1.486c-2.389-.256-5.748-2.125-3.835-1.033l-7.711-2.05-.114.21c-7.735-1.364-15.593-4.518-24.72-4.593a45.464,45.464,0,0,0,5.313,1.231,15.2,15.2,0,0,1-6.55-1.256l1.237.025a59.117,59.117,0,0,0-9.577-2.089l-.995.612c-3.281-.908-10.16-1.142-11.438-2.222-3.926,1.369-15.842-2.5-21.87-3.349l1.591-12.793h.334l.166,1.04c4.109.179,8.024.7,13.094,1.412l-.366.889c2.481.573,5.823.5,9.525.421,2.78-.057,5.765-.114,8.741.1-.452-.375-2.218-.39-3.477-.254,4.411-.814,8.981-.08,13.428.653,4.039.667,7.977,1.334,11.6.841a12.341,12.341,0,0,0,4.549.263,2.386,2.386,0,0,1-.463-.076l.771.036,2.633-.326a16.013,16.013,0,0,1-2.22.353c1.444.106,3.631.352,5.767.708l.975-.919.5.058c2.13-.232,1.668.563.5,1.229a20.547,20.547,0,0,1,2.807.76c.9-.728,2.281-.52,3.749-.311,1.492.212,3.069.424,4.3-.349,1.3.839,9.43,1.218,11.449,2.692a23.332,23.332,0,0,1,6.862.518l1.094-1.175,5.129,1.99c3.225-.557,4.57-.914,1.472-2.064,7.531,1.94,6.151.936,12.542,2.791l-.266-.82c2.316.174,5.952,1.477,7.39.9,2.884-.651,10.276-.174,18.574.3,6.888.4,14.4.792,20.474.544-1.413,1.132.305.918,2.352.7,1.912-.2,4.111-.4,4.309.5.811-.507,2.686-.7.562-1.327,6.754.987,10.259-.227,14.845,1.619.814-.509-1.4-.914-.686-1.2a6.042,6.042,0,0,0,2.853.341c.714-.286-.963-.534-2.022-.848,6.93.554,7.518,2.318,7.915,3.965,3.564-.531,5.311-.307,7.778.919,1.258-.446,3.335-.863-.96-1.338,2.429.084,14.86.207,15.018,1.518a11.4,11.4,0,0,1,4.023.329c5.443.3,5.93.211,11.262.7l-1.495.11c1.284,1.094,2.74,1.05,4.755,1.008a28.349,28.349,0,0,1,3.952.126l-.112-.168c4.776-.216,5.94-.034,6.946.149,1.09.2,2,.4,7.105.087l-.6.932c.42,1.19,3.045.875,6.253.559a27.48,27.48,0,0,1,8.056.027l-2.08.409c3.034.935,8.833-2.227,11.955-2.245.689-.13-1.046-.372-1.979-.577,8.21-.618.958,1.35,6.984,2.1,1.167-.6-1.307-1.85,2.774-1.671.978-.186,3.625.492,6.743,1.171,3.488.76,7.566,1.518,10.554,1.067-1.267.427-2.524.856.254,1.481a37.6,37.6,0,0,0,5.789.009c3.587-.16,7.417-.32,9.768.92.559-.1.778-.22.812-.35,3.255.689,10.641,1.673,12.537,2.745a2.657,2.657,0,0,1,1-.559c-.94-.435-1.992-.939-3.23-1.535l-1.05.767c-1.934-1.112-13.63-1.864-22.358-5.221.06.132.2.367.882.682-9.856-3.663-24.948-3.234-27.808-7.684l-6.494-2.489c5.089,1.052,3.942.251,2.827-.549-.8-.575-1.587-1.15-.035-1.039-3.363-1.03-9.083-1.041-4.932.146l.7-.022c.589,1.2-2.624.548-5.729-.1-2.666-.555-5.251-1.111-5.283-.5-17.06-4.157-33.964-7.042-50-10.7l2.183-1.014-5.607-1.219c-1.545-.005-2.233.671,1.768,1.54-2.288.329-6.526-2.242-6.567-2.583-4.283-.662-3.174.085-1.62.833,1.327.639,2.981,1.278,1.875,1.038l-3.226-.862h.772c-2.5-1.2-2.586-1.882-7.4-2.922-1.67-.223-2.053-.052-2.238.118-.16.147-.175.293-.732.192-.016.1-.431.058-1.84-.383l-7.071-1.5,3.081-.49c-2.956-1.269-6.552-1.465-3.21-1.993-5.431.772-26.346-5.358-29.4-5.407-4.183-1.834-8.505-2.808-13.878-3.93,1.384.067,2.474-1.035-2.176-1.931.631,1.771-2.449,1.207-5.95.643a22.391,22.391,0,0,0-6.573-.439c1.1-.387-3.563-1.427-6.555-2.336l.753-6.715c1.941.139,3.248.37,2.2.9.206.053.4.1.595.148,1.726-.319-.607-.979,1.953-1.525,5.37.6,11.367.292,17.689-.018,4.744-.231,9.671-.464,14.655-.311.182.356-1.765.9.728,1.432l6.136-1.783c2.3.175,2.113,2.057,6.307.821-.592.3-1.476.752.063.866,9.847-.751,19.88-.587,29.966-.422,13.233.217,26.559.433,39.68-1.419-3.132.691-1.044.76,1.347.786-1.555.166.035.881-.27,1.364l9.68-1.342c1.764,1.341,10.379.091,11.389,1.372l-3.064-.23c4.076,1.514-5.705,3.363-5.108,5.306-2.15-.811-4.944-.293-8.08.225-3.525.581-7.483,1.163-11.445-.14-1.653.4,1.41.625.526,1.076-1.9-.833-4.19-1.005-8.439-.633l.481.206c-11.936-.2-17.054.617-30.462,1.165l.993-.961a23.5,23.5,0,0,0-4.837.671c-3.307-1.456,8.092-.082,5.08-1.687-3.822,1.954-20.319.029-22.9,2.249-2.217.006-1.892-.272-1.567-.549s.651-.555-1.565-.549l-1.175.6-1.12-.774c-2.906.128-4.372.879-4.481,1.388a25.554,25.554,0,0,1,2.76.186,37.9,37.9,0,0,1-8.039.109c-1.507-.088-2.787-.177-3.5-.153l3.875-.337c-2.725-.127-5.586-.185-8.517-.212.5.307,1.172.692,2.128,1.193l1.606-.4c1.97,1.149,2.068,1.539,6.794,2.824-3.767-1.527,3.3-.417-.889-2.254,10.379.7,14.488,5.035,19.622,3.751,2.416,1.807-1.057,1.2-3.854.591-1.979-.43-3.62-.861-2.594-.435-2.308.167,3.443,2.389,6.63,2.911a12.651,12.651,0,0,0,4.129-.063,26.373,26.373,0,0,1,9.773.585c-.643-.161-.715-.316-1.455-.479,3.129.18,5.734,2.065,9.62,2.083,1.783,1.7,4.808,1.042,5.039,2.744l-7.29-2.075c4.086,1.38,7.579,4.118,14.672,4.837a19.8,19.8,0,0,0-3.768-1.891c2.121.008,3.805,1.209,6,1.222-.229-1.7-8.881-2.429-13.082-4.661a11.378,11.378,0,0,1,3.613.827c2.088.711,3.883,1.423,2.74.058,2.732,2.906,7.986,1.572,13.044,4.489l-.14-1.021a23.164,23.164,0,0,0,4.1,1.556l-2.585-1.886c4.163,2.066,8.708,1.084,12.8,2.641-5.5-1.31-5.029-.735-4.827-.159.123.349.148.7-1.327.626,5.462,1.963,7.118,1.647,9.087,1.331,1.8-.29,3.874-.579,9.378.886-1.906-.444-5.62-.674-3.358.277a37.84,37.84,0,0,0,7.071.569c8.047,2.111-1.471.669,1.837,2.059,3.027-.487,3.863,1.407,7.322,2.615l.252-.946c9.365,1.587,1.971,2.562,10.445,3.808l-3.191-2.157,4.245,1.375-.633-1.3c4.514,1.931,6.028,2.074,10.713,2.882-1.233.411.185,1.869,4.259,2.886.988.036,1.153-.1,1.163-.234.019-.264-.556-.527,3.248.49a6.237,6.237,0,0,0-5.14-1.739c-.183-.372-1.143-.907-1.336-1.278,3.156.075,7.571,1.677,9.662,2.2a13.592,13.592,0,0,0-2.318-.328l8.061,3.362c1.407-.034.431-.577-.536-1.111,1.672.518,2.74,1.243,5.216,1.939-.446-.909-.12-1.655-3.32-2.837l7.546,2.74c.617-.2,4.328.1,3.362-.445,4.544.646,10.485,4.208,16.5,5.115a.469.469,0,0,1-.149-.22l.345.259-.2-.04a7.186,7.186,0,0,0,2.06.959c5.555,1.253,10.7,1.583,16.954,4.453l4.118-.312c5.07,1.83-5.554.227,2.867,3.289,3.721,1.487,3.852.967,3.978.446.077-.319.152-.637,1.048-.494l1.29.811c.59.4.894.539,2.173,1.478.223.173.44.357.646.551a6.152,6.152,0,0,1,1.421,2,5.531,5.531,0,0,1,.086,3.991,5.246,5.246,0,0,1-1.543,2.165,5.669,5.669,0,0,1-1.036.7l-.361.156c-.218.085-.441.159-.667.222a5.967,5.967,0,0,1-2.222.161c-.833-.09-1.525-.216-2.2-.341a28.3,28.3,0,0,0-8.275-.672c1.834.468,3.273.409,5.114.736l-4.455.293c4.884,1.889,9.5,1.843,4.8,2.516C1529.067,1573.2,1513.084,1573.944,1512.654,1571.179Zm-47.786-4.334c1.239.3,3.69,1.119,4.651.612a2.914,2.914,0,0,0-2.15-.828C1466.676,1566.629,1465.884,1566.769,1464.868,1566.844Zm-200.824-1.81-.123-.072c-1.185-.064-1.7-.095-1.749-.095C1262.1,1564.867,1262.913,1564.926,1264.044,1565.034Zm270.617-.189h.005c-.005-.014-.01-.019-.012,0Zm-168.107-7.224a8.169,8.169,0,0,0,4.021.059,16.823,16.823,0,0,0-2.247-.15A17.573,17.573,0,0,0,1366.553,1557.621Zm-134.821-5.092c3.748-.264-1.845-.856-2.232-1.476a6.577,6.577,0,0,0-1.177.287A12.536,12.536,0,0,0,1231.732,1552.529Zm-7.17-.774c.546-.144,2.648-.03,3.182-.3a23.148,23.148,0,0,1-2.95-.115c-.43.135-.475.274-.282.407Zm-2.774-.5c-.145-1.4-6.927-4.076-14.217-4.28-1.474.318-.019,1.558.737,2.352.65.1,1.277.193,1.888.281a.233.233,0,0,1-.057-.261l5.552,1.007C1217.646,1550.619,1219.6,1550.891,1221.787,1551.259Zm-18.229-1.709c-.086-.206.142-.382.445-.521-.931-.108-1.807-.18-2.421-.192A19.815,19.815,0,0,0,1203.558,1549.55Zm64.75-2.409c.085-.214.7-.285-.349-.366A1.262,1.262,0,0,1,1268.308,1547.141Zm-89.26-.2.008.008.237-1.9a16.533,16.533,0,0,0,2.156-.154c1.6-.336.543-1.306-.472-2.24-.491.069-.967.139-1.412.209l.207-1.668a.39.39,0,0,1,0-.065l-.216,1.734-.273.044-.267,2.146.269-.006Zm8.488-3.727c.659.2,1.215.339,1.708.447a3.9,3.9,0,0,0-.081-.47C1188.769,1543.2,1188.237,1543.208,1187.536,1543.217Zm1.563-.252a2.18,2.18,0,0,0-.8-1.173c-.18.02-1.031.106-2.2.235A7.24,7.24,0,0,0,1189.1,1542.964Zm175.487-13.612,1.163.006a8.7,8.7,0,0,0-1.674-.5C1363.862,1528.861,1364.227,1529.1,1364.586,1529.352ZM1312.76,1575.1l1.872.033.143.845Zm20.1-1.8c.513.221,1.135.23,1.641.452l-.232.418C1331.995,1573.7,1330.466,1573.039,1332.864,1573.3Zm-33.384-.255.4.106A3,3,0,0,1,1299.48,1573.046Zm-3.216-.846a11.4,11.4,0,0,0,2.869.314c.162,0,.324,0,.494,0-.1.176-.666.34-.147.528Zm13.454-.844c.785.189,1.589.365,2.372.475.059.14.011.2-.117.2A22.927,22.927,0,0,1,1309.718,1571.356Zm-5.826-.745c.446-.752,2.695-.038,5.235.6l-.454-.087c.193.456-.024.634-.5.634A19.058,19.058,0,0,1,1303.892,1570.611Zm197.331.878,1.61-1.049-.8,1.094Zm-3.426-1.63,1.8.391A16.857,16.857,0,0,1,1497.8,1569.858Zm-215.35-.492a3.623,3.623,0,0,1,.8.207A3.4,3.4,0,0,1,1282.447,1569.366Zm.409-.063c.363,0,1.036.042,2.214.158C1284.413,1569.445,1283.665,1569.393,1282.856,1569.3Zm-2.757-.435c.965.2,1.875.331,2.757.435-.344-.005-.492.017-.409.063Zm211.791.271.767.082A5.966,5.966,0,0,1,1491.89,1569.14Zm-187.8-1.051,2.4.258-1.112.821Zm-28.255-.068c-1.415-.666-2.256-1.333,1.181-.382,1.258.025.567,1.179,1.319.982.163.181.125.256-.044.256A9.23,9.23,0,0,1,1275.83,1568.021Zm208.73.8-.292-.42c.556.25.8.423.39.423Zm-29.752-.4c.562-.3,1.374-.266,3-.2l-2.761.532Zm-163.5-.917.031.015Zm-.565-.534a1.115,1.115,0,0,0,.565.534C1290.978,1567.348,1290.743,1567.177,1290.739,1566.976Zm.509-.719a17.4,17.4,0,0,1,3.273.8C1293.81,1566.907,1292.282,1566.581,1291.248,1566.257Zm8.427.693-2.913-.482,4.167.506Zm-13.62-1.752,4.158.509c-.094.155.409.353,1.035.55C1288.712,1565.807,1285.9,1565.474,1286.055,1565.2Zm250.374-4.972a16.131,16.131,0,0,1,1.627.706Zm-43.052-.1c1.109.249,1.573.467,1.524.66C1493.758,1560.536,1493.119,1560.316,1493.377,1560.12Zm39.838-.608c-.965-.133-1.373-.248-.928-.886a38.436,38.436,0,0,1,4.142,1.6A14.96,14.96,0,0,0,1533.215,1559.512Zm-151.8.289a28.052,28.052,0,0,1-3.557.333Zm-3.211-.6c.483.2.481.387-.572.495A.94.94,0,0,0,1378.208,1559.2Zm-151.015-.589c.646.005,1.267-.006,1.848-.018,1.961-.041,3.461-.082,3.911.58A47,47,0,0,1,1227.193,1558.613Zm26.743-2.69,2.021.882a4.965,4.965,0,0,0-2.122.381Zm-16.481-.122c-.391-.429.871-.4,2.513.05,1.028.444,2.664.895,1.913,1.093Zm136.218-.167c.771.225,1.637.479,2.547.743l-.8.216Zm-89.268-1.3,2.2-2.4,3.873,3.512A10.372,10.372,0,0,0,1284.4,1554.33Zm-.256.015.256-.015-.063.07Zm-41.2-.329a12.306,12.306,0,0,0-2.04-.9c-.047-.017-.09-.034-.129-.052-.8-.323-1.325-.572-.508-.476-.231-.255-.675-.448-2.753-.311-1.237-.563,4.016-.263,2.743-.762,3.225.71,4.953.524,3.374,1.788q-.336.01-.625.012c.941.379,2.339.83,1.407.83A14.038,14.038,0,0,1,1242.945,1554.016Zm25.974-.724a1.62,1.62,0,0,1-.241.043Zm-2.678-.177.124.047A.8.8,0,0,1,1266.242,1553.115Zm235.635-1.782c3.261.839,1.713.91,1.861,1.4Zm-263.263-.234a10.815,10.815,0,0,1,1.644.413C1239.741,1551.4,1239.195,1551.268,1238.614,1551.1Zm237.632-5.638.23.083Zm-296.692-2.6.01,0-.272,2.185h-.009Zm60.573-.317c2.717-.587,5.773-1.567,5.4-.686l-.874.828A18.541,18.541,0,0,0,1240.128,1542.547Zm182.685-9.533c.187.043.356.089.5.136Zm-39.183-5.913c-1.61-.75-.881-.52.379,0Zm-85.512-12.688a1.922,1.922,0,0,1-.355.076Q1297.935,1514.446,1298.119,1514.413Zm41.906-.633.6-.105c.042.087-.089.114-.317.114C1340.222,1513.789,1340.128,1513.786,1340.024,1513.78Zm-11.536-.044-.384.033A2.829,2.829,0,0,1,1328.488,1513.736Zm108.527-9.723,2.089,1.191a7.84,7.84,0,0,0-2.907.125Zm-23.381.826a19.4,19.4,0,0,1,3.151.068C1416.03,1504.852,1414.8,1504.85,1413.635,1504.839Zm15.888-1.041,3.478-.431-2.244.694Z" transform="translate(-1178.001 -1503.366)" fill="#e8e7d9"/>
</svg>
